grf.mot																		
version=1																		
nRows=9
nColumns=31
inDegrees=yes																		
endheader																		
time	ground_force_vx	ground_force_vy	ground_force_vz	ground_force_px	ground_force_py	ground_force_pz	1_ground_force_vx	1_ground_force_vy	1_ground_force_vz	1_ground_force_px	1_ground_force_py	1_ground_force_pz	ground_torque_x	ground_torque_y	ground_torque_z	1_ground_torque_x	1_ground_torque_y	1_ground_torque_z	apo_force_vx	apo_force_vy	apo_force_vz	apo_force_px	apo_force_py	apo_force_pz	1_apo_force_vx	1_apo_force_vy	1_apo_force_vz	1_apo_force_px	1_apo_force_py	1_apo_force_pz	
2.47952000000000	0.00000000000000	0.00000000000000	0.00000000000000	0.00000000000000	0.00000000000000	0.00000000000000	74.59139999999999	739.40400000000000	53.55900000000000	-0.28004000000000	0.00000000000000	-0.10334200000000	0.00000000000000	0.00000000000000	0.00000000000000	0.00000000000000	4.00596000000000	0.00000000000000	1.74310000000000	1.52730000000000	0.00000000000000	0.00000000000000	-0.35000000000000	0.00000000000000	-1.90700000000000	0.16573000000000	0.00000000000000	0.00000000000000	-0.35000000000000	0.00000000000000	
2.48452000000000	0.00000000000000	0.00000000000000	0.00000000000000	0.00000000000000	0.00000000000000	0.00000000000000	83.05750000000001	776.57000000000005	55.99860000000000	-0.28896300000000	0.00000000000000	-0.10377300000000	0.00000000000000	0.00000000000000	0.00000000000000	0.00000000000000	3.78052000000000	0.00000000000000	1.91620000000000	1.68500000000000	0.00000000000000	0.00000000000000	-0.35000000000000	0.00000000000000	-2.14510000000000	0.21962000000000	0.00000000000000	0.00000000000000	-0.35000000000000	0.00000000000000	
2.48952000000000	0.00000000000000	0.00000000000000	0.00000000000000	0.00000000000000	0.00000000000000	0.00000000000000	91.92189999999999	812.35000000000002	58.08890000000000	-0.29868100000000	0.00000000000000	-0.10436700000000	0.00000000000000	0.00000000000000	0.00000000000000	0.00000000000000	3.46226000000000	0.00000000000000	2.09730000000000	1.85060000000000	0.00000000000000	0.00000000000000	-0.35000000000000	0.00000000000000	-2.40670000000000	0.28268000000000	0.00000000000000	0.00000000000000	-0.35000000000000	0.00000000000000	
2.49452000000000	0.00000000000000	0.00000000000000	0.00000000000000	0.00000000000000	0.00000000000000	0.00000000000000	101.04100000000000	846.12599999999998	59.77740000000000	-0.30914900000000	0.00000000000000	-0.10510700000000	0.00000000000000	0.00000000000000	0.00000000000000	0.00000000000000	3.06580000000000	0.00000000000000	2.28640000000000	2.02430000000000	0.00000000000000	0.00000000000000	-0.35000000000000	0.00000000000000	-2.69340000000000	0.35568000000000	0.00000000000000	0.00000000000000	-0.35000000000000	0.00000000000000	
2.49952000000000	0.00000000000000	0.00000000000000	0.00000000000000	0.00000000000000	0.00000000000000	0.00000000000000	110.25900000000000	877.30100000000004	61.01840000000000	-0.32029200000000	0.00000000000000	-0.10597100000000	0.00000000000000	0.00000000000000	0.00000000000000	0.00000000000000	2.60672000000000	0.00000000000000	2.48260000000000	2.20560000000000	0.00000000000000	0.00000000000000	-0.35000000000000	0.00000000000000	-3.00470000000000	0.43904000000000	0.00000000000000	0.00000000000000	-0.35000000000000	0.00000000000000	
2.50452000000000	0.00000000000000	0.00000000000000	0.00000000000000	0.00000000000000	0.00000000000000	0.00000000000000	119.41400000000000	905.30200000000002	61.77500000000000	-0.33200600000000	0.00000000000000	-0.10693000000000	0.00000000000000	0.00000000000000	0.00000000000000	0.00000000000000	2.10108000000000	0.00000000000000	2.68380000000000	2.39280000000000	0.00000000000000	0.00000000000000	-0.35000000000000	0.00000000000000	-3.33830000000000	0.53269000000000	0.00000000000000	0.00000000000000	-0.35000000000000	0.00000000000000	
2.50952000000000	0.00000000000000	0.00000000000000	0.00000000000000	0.00000000000000	0.00000000000000	0.00000000000000	128.34000000000000	929.59699999999998	62.01900000000000	-0.34415500000000	0.00000000000000	-0.10795100000000	0.00000000000000	0.00000000000000	0.00000000000000	0.00000000000000	1.56494000000000	0.00000000000000	2.88710000000000	2.58350000000000	0.00000000000000	0.00000000000000	-0.35000000000000	0.00000000000000	-3.68950000000000	0.63581000000000	0.00000000000000	0.00000000000000	-0.35000000000000	0.00000000000000	
2.51452000000000	0.00000000000000	0.00000000000000	0.00000000000000	0.00000000000000	0.00000000000000	0.00000000000000	136.86900000000000	949.70000000000005	61.73210000000000	-0.35657800000000	0.00000000000000	-0.10899700000000	0.00000000000000	0.00000000000000	0.00000000000000	0.00000000000000	1.01392000000000	0.00000000000000	3.07690000000000	2.76380000000000	0.00000000000000	0.00000000000000	-0.35000000000000	0.00000000000000	-4.04240000000000	0.74508000000000	0.00000000000000	0.00000000000000	-0.35000000000000	0.00000000000000	
2.51952000000000	-3.73302000000000	48.87670000000000	14.66860000000000	-0.00995991000000	0.00000000000000	0.03729970000000	144.84000000000000	965.17999999999995	60.90620000000000	-0.36908500000000	0.00000000000000	-0.11002600000000	0.00000000000000	1.60608000000000	0.00000000000000	0.00000000000000	0.46278800000000	0.00000000000000	3.34710000000000	3.01830000000000	0.00000000000000	0.00000000000000	-0.35000000000000	0.00000000000000	-4.43940000000000	0.86772000000000	0.00000000000000	0.00000000000000	-0.35000000000000	0.00000000000000	
